<?xml version="1.0" ?><!DOCTYPE svg  PUBLIC '-//W3C//DTD SVG 1.1//EN'  'http://www.w3.org/Graphics/SVG/1.1/DTD/svg11.dtd'><svg enable-background="new 0 0 32 32" version="1.1" viewBox="0 0 32 32" xml:space="preserve" xmlns="http://www.w3.org/2000/svg" xmlns:xlink="http://www.w3.org/1999/xlink"><g id="Security02"/><g id="Security03"/><g id="Security04"><g><path d="M20,24v6c0,0.55-0.45,1-1,1h-6c-0.55,0-1-0.45-1-1v-6c0-0.55,0.45-1,1-1h6C19.55,23,20,23.45,20,24z" fill="#FFC10A"/></g><g><path d="M31,6v14c0,2.76-2.24,5-5,5H6c-2.76,0-5-2.24-5-5V6c0-2.76,2.24-5,5-5h20C28.76,1,31,3.24,31,6z" fill="#2197F3"/></g><g><path d="M31,18v2c0,2.7614-2.2386,5-5,5H6c-2.7614,0-5-2.2386-5-5v-2H31z" fill="#3F51B5"/></g><g><path d="M22,31H10c-0.5522,0-1-0.4473-1-1s0.4478-1,1-1h12c0.5527,0,1,0.4473,1,1S22.5527,31,22,31z" fill="#FFC10A"/></g><g><path d="M18.707,8.293c-0.3906-0.3906-1.0234-0.3906-1.4141,0L16,9.5859l-1.293-1.293    c-0.3906-0.3906-1.0234-0.3906-1.4141,0s-0.3906,1.0234,0,1.4141L14.5859,11l-1.293,1.293c-0.3906,0.3906-0.3906,1.0234,0,1.4141    C13.4883,13.9023,13.7441,14,14,14s0.5117-0.0977,0.707-0.293L16,12.4141l1.293,1.293C17.4883,13.9023,17.7441,14,18,14    s0.5117-0.0977,0.707-0.293c0.3906-0.3906,0.3906-1.0234,0-1.4141L17.4141,11l1.293-1.293    C19.0977,9.3164,19.0977,8.6836,18.707,8.293z" fill="#FFFFFF"/><path d="M11.707,8.293c-0.3906-0.3906-1.0234-0.3906-1.4141,0L9,9.5859L7.707,8.293    c-0.3906-0.3906-1.0234-0.3906-1.4141,0s-0.3906,1.0234,0,1.4141L7.5859,11l-1.293,1.293c-0.3906,0.3906-0.3906,1.0234,0,1.4141    C6.4883,13.9023,6.7441,14,7,14s0.5117-0.0977,0.707-0.293L9,12.4141l1.293,1.293C10.4883,13.9023,10.7441,14,11,14    s0.5117-0.0977,0.707-0.293c0.3906-0.3906,0.3906-1.0234,0-1.4141L10.4141,11l1.293-1.293    C12.0977,9.3164,12.0977,8.6836,11.707,8.293z" fill="#FFFFFF"/><path d="M24.4141,11l1.293-1.293c0.3906-0.3906,0.3906-1.0234,0-1.4141s-1.0234-0.3906-1.4141,0L23,9.5859    l-1.293-1.293c-0.3906-0.3906-1.0234-0.3906-1.4141,0s-0.3906,1.0234,0,1.4141L21.5859,11l-1.293,1.293    c-0.3906,0.3906-0.3906,1.0234,0,1.4141C20.4883,13.9023,20.7441,14,21,14s0.5117-0.0977,0.707-0.293L23,12.4141l1.293,1.293    C24.4883,13.9023,24.7441,14,25,14s0.5117-0.0977,0.707-0.293c0.3906-0.3906,0.3906-1.0234,0-1.4141L24.4141,11z" fill="#FFFFFF"/></g></g><g id="Security05"/><g id="Security06"/><g id="Security07"/><g id="Security08"/><g id="Security09"/><g id="Security10"/><g id="Security11"/><g id="Security12"/><g id="Security13"/><g id="Security14"/><g id="Security15"/><g id="Security16"/><g id="Security17"/><g id="Security18"/><g id="Security19"/><g id="Security20"/><g id="Security21"/></svg>